<?xml version="1.0" encoding="utf-8"?>
<svg version="1.1" xmlns="http://www.w3.org/2000/svg" viewBox="0 0 40 40" fill="none">
  <!-- Artemis shield outline -->
  <path d="M20 3L4 9V19.5C4 28.5 11 35.5 20 37.5C29 35.5 36 28.5 36 19.5V9L20 3Z" stroke="#8A0000" stroke-width="2.5" fill="white"/>
  <!-- Inner shield fill -->
  <path d="M20 6L6.5 11V19.5C6.5 27 12.4 33 20 35C27.6 33 33.5 27 33.5 19.5V11L20 6Z" fill="rgba(138,0,0,0.08)"/>
  <!-- Letter A -->
  <path d="M20 11L14 24H16.5L17.8 20.8H22.2L23.5 24H26L20 11ZM18.6 18.8L20 14.8L21.4 18.8H18.6Z" fill="#8A0000"/>
  <!-- Base line + dots -->
  <line x1="12" y1="28" x2="28" y2="28" stroke="rgba(138,0,0,0.3)" stroke-width="1"/>
  <circle cx="15" cy="30.5" r="1" fill="rgba(138,0,0,0.5)"/>
  <circle cx="20" cy="30.5" r="1" fill="rgba(138,0,0,0.5)"/>
  <circle cx="25" cy="30.5" r="1" fill="rgba(138,0,0,0.5)"/>
</svg>
